<svg id="Layer_1" data-name="Layer 1" xmlns="http://www.w3.org/2000/svg" viewBox="0 0 236.1 204.93"><defs><style>.cls-1{fill:#f7941d;}</style></defs><title>PROPERTY</title><path class="cls-1" d="M243.4,204c-2,6-6.28,7.91-12.43,7.9q-109-.18-217.92-.08c-4.88,0-5.74-.86-5.74-5.76V58c0-6.92,2.87-9.79,9.8-9.79H93.9c6.6,0,9.59,3,9.6,9.56q0,11.3,0,22.6v3.17c6.57-4.5,13-6.71,20.32-1.13V79q0-30.55,0-61.12c0-7.55,3.26-10.82,10.79-10.82,32.43,0,64.87.08,97.31-.07,5.75,0,9.63,1.9,11.48,7.44ZM190.21,117.8c1.08-3.72,3.57-4.86,7.07-4.77,5.23.14,10.45,0,15.68,0,4.62,0,6.66,2,6.7,6.54q.08,8.07,0,16.14c0,4.69-2.07,6.66-6.84,6.68s-9.84-.08-14.76,0c-3.38.08-6.3-.48-7.71-4.19-4.53,2.83-9,2.75-13.71.59v19.94h2.61c7.53,0,15.06,0,22.59,0,5.82,0,8.79,3,8.8,8.8q0,17.06,0,34.12v2.83h20.84c4.33,0,4.59-.25,4.59-4.54V18.33c0-.54,0-1.08,0-1.61.05-1.64-.72-2.4-2.37-2.38-2.61,0-5.22,0-7.83,0q-45.76,0-91.53,0c-2.09,0-3.36.38-3.35,2.86,0,22.44,0,44.88.06,67.33a2.53,2.53,0,0,0,.82,1.92c5.07,2.82,10.2,5.53,15.29,8.26.19-.26.27-.32.27-.37,0-6.3,0-12.6.07-18.9,0-3.55,2.13-5.88,5.66-6,6-.12,12-.11,18,0,3.34.06,5.64,2.22,5.71,5.46.13,6.14.13,12.3,0,18.44-.07,3.36-2.44,5.44-5.88,5.48-4.38,0-8.76,0-13.14,0-.62,0-1.24.1-2.52.2Zm-53.82,86.77h29.5c3.33,0,3.34,0,3.34-3.33V134.86c-.56-.35-1-.66-1.45-.91Q142,120.11,116.22,106.34a3.84,3.84,0,0,0-3.09.15c-12.15,6.42-24.24,12.94-36.35,19.43l-16.36,8.77c-.05.49-.12.79-.12,1.09q0,33.19,0,66.39c0,1.8.72,2.43,2.49,2.42,7.3-.05,14.6,0,21.89,0h8.47v-2.74q0-15.9,0-31.81c0-3.78,1.16-4.93,5-5,1.85,0,3.69,0,5.54,0h27.43c4.35,0,5.33,1,5.34,5.25v34.28ZM59.66,106.9v-2.79c0-6.68,0-13.37,0-20.06,0-4.86,3-7.73,7.77-7.77q5.17,0,10.37,0c4.82,0,7.77,3,7.81,7.74,0,2.82,0,5.64,0,8.93l10.43-5.58V55.73H14.74V204.36H52.82V139.72c-3.25.14-6.41.79-9.38.3-5-.83-8.67-5.28-9.34-10.21a12.31,12.31,0,0,1,6.37-12.57C46.78,113.75,53.16,110.39,59.66,106.9Zm128.57,21.25c0-2.46-1.37-3.93-3.42-5q-33.37-17.89-66.72-35.84a6.53,6.53,0,0,0-6.74.08Q82.78,102.79,54.16,118.1c-3.45,1.85-6.93,3.64-10.32,5.59a5,5,0,0,0-2.05,6.59,5.12,5.12,0,0,0,6.62,2.54,18.79,18.79,0,0,0,2.05-1Q81,115.4,111.5,99a6.12,6.12,0,0,1,6.46,0c13.76,7.48,27.57,14.84,41.36,22.25,7,3.74,13.91,7.53,20.9,11.21C184.13,134.45,188.19,132.24,188.23,128.15Zm-11.6,76.26h26.52v-38.2H176.63Zm-76.08-32v32H129v-32ZM155,76.8V91.38h14.49V76.8Zm57.34,58.28V120.46H197.71v14.62ZM78.21,97V83.69H67.06v19.22Z" transform="translate(-7.31 -6.99)"/><path class="cls-1" d="M162.23,25.94c2.92,0,5.84,0,8.76,0,3.54.06,5.83,2.19,5.88,5.72q.15,9,0,18a5.41,5.41,0,0,1-5.54,5.62q-9.11.21-18.21,0c-3.54-.07-5.6-2.39-5.62-6,0-5.84-.05-11.69,0-17.53A5.44,5.44,0,0,1,153.24,26C156.24,25.9,159.24,26,162.23,25.94Zm7.26,22V33.34H154.9V48Z" transform="translate(-7.31 -6.99)"/><path class="cls-1" d="M205,98.84c-3,0-6,0-9,0-3.44-.07-5.65-2.2-5.69-5.62q-.12-9,0-18c0-3.43,2.14-5.69,5.57-5.77,6-.12,12-.11,18,0,3.37.06,5.62,2.11,5.7,5.43q.25,9.33,0,18.67c-.1,3.33-2.41,5.23-5.79,5.28C210.86,98.88,207.93,98.84,205,98.84Zm7.22-7.38V76.89H197.73V91.46Z" transform="translate(-7.31 -6.99)"/><path class="cls-1" d="M204.89,25.94c2.92,0,5.84,0,8.76,0,3.56.05,5.83,1.91,5.93,5.37q.25,9.33,0,18.67a5.18,5.18,0,0,1-5.34,5.28q-9.21.21-18.43,0c-3.42-.07-5.45-2.36-5.48-5.85,0-5.91-.06-11.83,0-17.74,0-3.58,2.21-5.66,5.81-5.73C199.05,25.9,202,25.94,204.89,25.94Zm-7.21,22h14.57V33.39H197.68Z" transform="translate(-7.31 -6.99)"/></svg>