<svg id="Layer_1" data-name="Layer 1" xmlns="http://www.w3.org/2000/svg" viewBox="0 0 807.15 242.64"><defs><style>.cls-1{fill:#4f5055;}.cls-2{font-size:104.51px;font-family:Arial-BoldMT, Arial;font-weight:700;}.cls-2,.cls-4{fill:#f7941d;}.cls-3{font-size:136.41px;font-family:Arial-Black, Arial;font-weight:800;}.cls-3,.cls-6,.cls-8{fill:#fff;}.cls-5,.cls-9{fill:#c2c2c2;}.cls-7{fill:#767676;}.cls-7,.cls-8,.cls-9{stroke:#fff;stroke-miterlimit:10;}</style></defs><title>Advanced-Secuirty-12</title><circle class="cls-1" cx="96.16" cy="102.07" r="72.41"/><text class="cls-2" transform="translate(219.75 89.66)">ADVANCED</text><text class="cls-3" transform="translate(216.86 200.81) scale(0.76 1)">SECURITY</text><path class="cls-4" d="M67.61,21.54,45.29,46.77V89.29c0,50.16,33.55,94,83.41,117.38l.22-.11v-185H67.61Z" transform="translate(-32.76 -3.39)"/><path class="cls-5" d="M212.11,89.29V46.43L189.79,21.54H128.92v185C178.66,183.11,212.11,139.38,212.11,89.29Z" transform="translate(-32.76 -3.39)"/><path class="cls-6" d="M128.7,206.67C78.84,183.24,45.29,139.45,45.29,89.29V46.77L67.61,21.54h61.31V9H67.61a12.5,12.5,0,0,0-9.37,4.23L35.9,38.46a12.57,12.57,0,0,0-3.14,8.31V89.29c0,53.14,34.72,102.46,90.61,128.72a12.59,12.59,0,0,0,5.33,1.19h.22V206.56Z" transform="translate(-32.76 -3.39)"/><path class="cls-6" d="M224.65,89.29V46.43a12.55,12.55,0,0,0-3.21-8.37L199.12,13.17A12.57,12.57,0,0,0,189.79,9H128.92V21.54h60.87l22.32,24.89V89.29c0,50.09-33.45,93.82-83.19,117.27v12.63A12.52,12.52,0,0,0,134,218C189.93,191.75,224.65,142.43,224.65,89.29Z" transform="translate(-32.76 -3.39)"/><path class="cls-7" d="M98.41,150.33h60.33a8.49,8.49,0,0,0,8.22-6.39H90.19A8.5,8.5,0,0,0,98.41,150.33Z" transform="translate(-32.76 -3.39)"/><path class="cls-8" d="M89.92,141.84a8.51,8.51,0,0,0,.27,2.1H167a9,9,0,0,0,.27-2.1v-1.35H89.92Z" transform="translate(-32.76 -3.39)"/><path class="cls-9" d="M144.12,93v.07h-31.2V93H100.7v.07c-19.17-6.49-8,40-10.78,47.4h77.31c-2.57-8.52,8.08-53.64-10.95-47.4V93Zm-12,29.24V129H125v-6.69C111.4,105.88,145.88,106.86,132.13,122.26Z" transform="translate(-32.76 -3.39)"/><path class="cls-6" d="M112.92,81.07a13,13,0,0,1,6-10.93c11.7-7.43,24,0,25.25,10.83V93h12.16V82.8h.17c0-20.07-21.31-35.25-42.48-24.1A25.18,25.18,0,0,0,100.7,81V93h12.22Z" transform="translate(-32.76 -3.39)"/><path class="cls-6" d="M124.17,111.08a3.39,3.39,0,0,0-1,1c-2.67,4.1-1.19,8.28,1.86,10.16V129h7.11v-6.69a6.79,6.79,0,0,0,3.25-5.78C135.38,111.31,129.62,107.49,124.17,111.08Z" transform="translate(-32.76 -3.39)"/></svg>